<svg width="69" height="47" viewBox="0 0 69 47" fill="none" xmlns="http://www.w3.org/2000/svg">
<path d="M30.2997 38V19.36L23.0197 33.24H19.9397L12.6597 19.36V38H7.13969V9.6H13.0597L21.4597 25.76L29.9397 9.6H35.8197V38H30.2997ZM44.6691 9.6L52.3491 31.44L59.9491 9.6H65.7491L54.9891 38H49.6691L38.8691 9.6H44.6691Z" fill="#001400"/>
<path d="M30.2997 38H29.2997V39H30.2997V38ZM30.2997 19.36H31.2997L29.4141 18.8955L30.2997 19.36ZM23.0197 33.24V34.24H23.6244L23.9053 33.7045L23.0197 33.24ZM19.9397 33.24L19.0541 33.7045L19.335 34.24H19.9397V33.24ZM12.6597 19.36L13.5453 18.8955L11.6597 19.36H12.6597ZM12.6597 38V39H13.6597V38H12.6597ZM7.13969 38H6.13969V39H7.13969V38ZM7.13969 9.6V8.6H6.13969V9.6H7.13969ZM13.0597 9.6L13.947 9.13878L13.6669 8.6H13.0597V9.6ZM21.4597 25.76L20.5724 26.2212L21.4555 27.9201L22.3452 26.2247L21.4597 25.76ZM29.9397 9.6V8.6H29.3351L29.0542 9.13534L29.9397 9.6ZM35.8197 9.6H36.8197V8.6H35.8197V9.6ZM35.8197 38V39H36.8197V38H35.8197ZM31.2997 38V19.36H29.2997V38H31.2997ZM29.4141 18.8955L22.1341 32.7755L23.9053 33.7045L31.1853 19.8245L29.4141 18.8955ZM23.0197 32.24H19.9397V34.24H23.0197V32.24ZM20.8253 32.7755L13.5453 18.8955L11.7741 19.8245L19.0541 33.7045L20.8253 32.7755ZM11.6597 19.36V38H13.6597V19.36H11.6597ZM12.6597 37H7.13969V39H12.6597V37ZM8.13969 38V9.6H6.13969V38H8.13969ZM7.13969 10.6H13.0597V8.6H7.13969V10.6ZM12.1724 10.0612L20.5724 26.2212L22.347 25.2988L13.947 9.13878L12.1724 10.0612ZM22.3452 26.2247L30.8252 10.0647L29.0542 9.13534L20.5742 25.2953L22.3452 26.2247ZM29.9397 10.6H35.8197V8.6H29.9397V10.6ZM34.8197 9.6V38H36.8197V9.6H34.8197ZM35.8197 37H30.2997V39H35.8197V37ZM44.6691 9.6L45.6124 9.26826L45.3774 8.6H44.6691V9.6ZM52.3491 31.44L51.4057 31.7717L52.354 34.4685L53.2935 31.7687L52.3491 31.44ZM59.9491 9.6V8.6H59.2382L59.0046 9.27134L59.9491 9.6ZM65.7491 9.6L66.6842 9.9543L67.1973 8.6H65.7491V9.6ZM54.9891 38V39H55.6796L55.9242 38.3543L54.9891 38ZM49.6691 38L48.7344 38.3554L48.9795 39H49.6691V38ZM38.8691 9.6V8.6H37.4189L37.9344 9.95545L38.8691 9.6ZM43.7257 9.93173L51.4057 31.7717L53.2924 31.1083L45.6124 9.26826L43.7257 9.93173ZM53.2935 31.7687L60.8935 9.92865L59.0046 9.27134L51.4046 31.1113L53.2935 31.7687ZM59.9491 10.6H65.7491V8.6H59.9491V10.6ZM64.8139 9.2457L54.0539 37.6457L55.9242 38.3543L66.6842 9.9543L64.8139 9.2457ZM54.9891 37H49.6691V39H54.9891V37ZM50.6038 37.6446L39.8038 9.24455L37.9344 9.95545L48.7344 38.3554L50.6038 37.6446ZM38.8691 10.6H44.6691V8.6H38.8691V10.6Z" fill="#8FAD8F"/>
</svg>
