<svg width="33" height="34" viewBox="0 0 33 34" fill="none" xmlns="http://www.w3.org/2000/svg">
<g clip-path="url(#clip0_163_78)">
<path d="M13.8487 12.739L13.8488 12.739L13.8481 12.7356L13.2377 9.88678C13.1907 9.63678 13.0843 9.43437 12.9169 9.28287C12.7495 9.13143 12.5529 9.0551 12.3293 9.0551H9.16318C8.86396 9.0551 8.60986 9.15802 8.40415 9.36374C8.19843 9.56946 8.09551 9.82355 8.09551 10.1228C8.09551 11.9706 8.54996 13.8062 9.45764 15.6292C10.3647 17.4508 11.5438 19.0872 12.995 20.5384C14.4461 21.9895 16.0826 23.1687 17.9042 24.0757C19.7271 24.9834 21.5627 25.4378 23.4106 25.4378C23.7098 25.4378 23.9639 25.3349 24.1696 25.1292C24.3753 24.9235 24.4782 24.6694 24.4782 24.3701V21.3171C24.4782 21.0645 24.3989 20.8421 24.2405 20.6519C24.0827 20.4625 23.8843 20.3433 23.6469 20.2957C23.6468 20.2957 23.6466 20.2957 23.6465 20.2957L20.9568 19.708C20.9567 19.708 20.9566 19.708 20.9565 19.7079C20.7512 19.6606 20.5457 19.6726 20.3412 19.7434C20.1369 19.8141 19.9568 19.9357 19.8009 20.1069L17.6796 22.2953C16.3703 21.5773 15.198 20.7042 14.1624 19.676C13.1261 18.6472 12.1892 17.4404 11.3519 16.0554L13.5858 13.7991C13.5858 13.7991 13.5859 13.7991 13.5859 13.799C13.7135 13.6714 13.7971 13.5157 13.8368 13.3334C13.876 13.1532 13.8796 12.9548 13.8487 12.739ZM11.8816 10.512L12.3879 12.9336L10.6279 14.7154C10.2662 13.8406 9.99772 13.0632 9.82219 12.3831C9.64723 11.7051 9.55759 11.0815 9.55262 10.512H11.8816ZM20.9803 23.6658C20.2841 23.4918 19.6373 23.2688 19.0399 22.997L20.7591 21.1907L23.0213 21.652V23.9785C22.3628 23.9455 21.6824 23.8414 20.9803 23.6658Z" fill="#73BE74" stroke="#73BE74" stroke-width="0.1"/>
</g>
<rect x="1.00439" y="1.96375" width="30.5654" height="30.5654" rx="15.2827" stroke="#73BE74" stroke-width="2"/>
<defs>
<clipPath id="clip0_163_78">
<rect x="8.14551" y="9.1051" width="16.2827" height="16.2827" fill="white"/>
</clipPath>
</defs>
</svg>
